PathFileType	4	(X/Y/Z)	S01_0008_Gait_markers.trc
DataRate	CameraRate	NumFrames	NumMarkers	Units	OrigDataRate	OrigDataStartFrame	OrigNumFrames
250.000000	250.000000	4	54	mm	250.000000	255	340
Frame#	Time	HEAD_ANT			R_HEAD			L_HEAD			C7			R_BACK			L_BACK			STERNUM			R_ACROMION			R_HUM_PROX			R_HUM_ANT			R_HUM_POST			R_ELBOW_LAT			R_ELBOW_MED			R_FOREARM			R_WIRST_LAT			R_WRITS_MED			R_HAND			L_ACROMION			L_HUM_PROX			L_HUM_ANT			L_HUM_POST			L_ELBOW_LAT			L_ELBOW_MED			L_FOREARM			L_WRIST_LAT			L_WIRST_MED			L_HAND			R_ILIAC			SACRUM			L_ILIAC			R_GTROCH			R_THIGH__1			R_THIGH_2			R_THIGH_3			R_THIGH_4			R_SHANK_1			R_SHANK_2			R_SHANK_3			R_SHANK_4			R_HEEL			R_FOOT_LAT			R_FOOT_MED			L_GTROCH			L_THIGH_1			L_THIGH_2			L_THIGH_3			L_THIGH_4			L_SHANK_1			L_SHANK_2			L_SHANK_3			L_SHANK_4			L_HEEL			L_FOOT_LAT			L_FOOT_MED			
		X1	Y1	Z1	X2	Y2	Z2	X3	Y3	Z3	X4	Y4	Z4	X5	Y5	Z5	X6	Y6	Z6	X7	Y7	Z7	X8	Y8	Z8	X9	Y9	Z9	X10	Y10	Z10	X11	Y11	Z11	X12	Y12	Z12	X13	Y13	Z13	X14	Y14	Z14	X15	Y15	Z15	X16	Y16	Z16	X17	Y17	Z17	X18	Y18	Z18	X19	Y19	Z19	X20	Y20	Z20	X21	Y21	Z21	X22	Y22	Z22	X23	Y23	Z23	X24	Y24	Z24	X25	Y25	Z25	X26	Y26	Z26	X27	Y27	Z27	X28	Y28	Z28	X29	Y29	Z29	X30	Y30	Z30	X31	Y31	Z31	X32	Y32	Z32	X33	Y33	Z33	X34	Y34	Z34	X35	Y35	Z35	X36	Y36	Z36	X37	Y37	Z37	X38	Y38	Z38	X39	Y39	Z39	X40	Y40	Z40	X41	Y41	Z41	X42	Y42	Z42	X43	Y43	Z43	X44	Y44	Z44	X45	Y45	Z45	X46	Y46	Z46	X47	Y47	Z47	X48	Y48	Z48	X49	Y49	Z49	X50	Y50	Z50	X51	Y51	Z51	X52	Y52	Z52	X53	Y53	Z53	X54	Y54	Z54	

256	1.02	1592.457275390625	1750.88916015625	-374.8640136718746	1530.426635742188	1700.0302734375	-300.3408203124996	1536.67041015625	1701.4990234375	-447.2626647949215	1398.076782226562	1530.036254882812	-377.4881591796872	1323.296142578125	1334.355834960938	-312.6936950683591	1328.5419921875	1336.806762695312	-454.4870300292966	1577.917724609375	1369.380126953125	-370.3110656738278	1469.723266601562	1483.401489257812	-201.5950775146481	1416.341674804688	1325.191040039062	-111.2964782714841	1472.340209960938	1236.515502929688	-101.4559326171872	1351.105834960938	1245.900390625	-104.8743896484372	1391.589233398438	1137.107299804688	-91.64714813232396	1375.411987304688	1133.295288085938	-173.1532745361326	1484.354370117188	949.6832885742188	-81.94184112548807	1523.46435546875	882.675048828125	-117.5126190185545	1452.537353515625	861.2865600585938	-85.8312225341795	1518.80712890625	794.8634643554688	-61.64456176757795	1483.908569335938	1485.146484375	-540.9154663085934	1474.89306640625	1318.963623046875	-638.7366333007809	1541.215454101562	1242.1767578125	-632.520568847656	1423.127197265625	1238.082397460938	-668.395568847656	1488.400390625	1137.598388671875	-671.8050537109373	1433.333374023438	1126.883056640625	-617.367004394531	1620.046752929688	983.0909423828126	-635.2922363281248	1659.679565429688	934.0833740234376	-578.8538818359373	1621.39501953125	898.0066528320314	-637.0729370117185	1707.644775390625	860.2860717773439	-618.1663818359373	1470.4619140625	1083.72119140625	-203.0603790283201	1341.174560546875	1054.461547851562	-370.5524902343748	1467.329711914062	1077.268798828125	-545.5448608398435	1433.713500976562	931.7059936523438	-182.8562622070311	1552.250610351562	662.7130737304688	-200.846969604492	1602.552124023438	693.145751953125	-197.6180877685545	1633.562744140625	594.5938720703125	-229.5943450927733	1570.031860351562	584.2792358398438	-220.1417236328124	1561.506225585938	369.0614013671876	-211.2053222656249	1616.506958007812	346.5731811523438	-222.9780883789062	1610.65771484375	261.6481933593751	-237.1259765624999	1547.310180664062	269.4406738281251	-229.3595123291015	1510.779418945312	53.41281127929695	-310.1947326660156	1665.862915039062	34.00997543334966	-213.6800537109375	1722.83740234375	49.75862121582038	-297.6559143066406	1423.377197265625	964.8261718750001	-548.408996582031	1466.685424804688	669.8763427734376	-522.9928588867186	1416.986328125	697.0300292968751	-539.1422119140624	1386.971801757812	599.8201293945314	-504.3020019531249	1450.372436523438	593.2037963867189	-497.1753845214843	1364.58349609375	332.814666748047	-480.9911804199218	1304.749145507812	319.999237060547	-482.9012145996093	1288.495971679688	236.4522705078126	-462.5973510742187	1352.041015625	233.3147583007814	-453.4948730468749	1220.879760742188	59.52742385864266	-383.8667602539062	1395.278686523438	19.73219490051279	-450.2022705078125	1429.19921875	28.66010475158699	-343.2266235351562	
257	1.024	1597.9296875	1750.029541015625	-374.7426452636715	1536.113403320312	1699.2421875	-300.0299072265621	1542.093017578125	1700.629272460938	-447.0567932128902	1403.440795898438	1529.172973632812	-377.4299316406247	1328.321655273438	1333.60498046875	-312.6402587890622	1333.742309570312	1336.23193359375	-454.2506713867185	1583.203247070312	1368.441284179688	-370.1022949218747	1474.96923828125	1482.517333984375	-201.333084106445	1421.296264648438	1324.401733398438	-111.2503814697263	1477.02490234375	1235.672607421875	-101.2302474975583	1355.956176757812	1245.137939453125	-104.9573669433591	1396.622924804688	1136.192260742188	-91.53331756591771	1380.368041992188	1132.383666992188	-173.3081512451169	1488.8857421875	948.9439697265625	-81.62807464599588	1528.132934570312	881.93115234375	-117.0871276855467	1457.012329101562	860.4345703125	-85.76897430419903	1523.345947265625	794.0997314453125	-61.07792282104474	1489.173828125	1484.314086914063	-540.7775268554684	1480.796020507812	1318.320434570313	-638.6394653320309	1547.2626953125	1241.696899414063	-632.3790893554685	1429.21044921875	1237.615234375	-668.4818725585935	1494.780029296875	1137.005615234375	-671.8469238281248	1439.480224609375	1126.081420898438	-617.7326049804685	1626.760131835938	983.4907226562501	-634.687805175781	1664.641723632812	933.7485351562501	-577.6419677734373	1628.467407226562	897.9683837890626	-636.8500366210935	1714.930541992188	860.5783081054689	-617.210754394531	1475.800537109375	1082.869018554688	-203.1190338134763	1346.33203125	1053.793701171875	-370.1547851562498	1472.020751953125	1076.488647460938	-545.686584472656	1440.745849609375	931.1427612304688	-183.2474365234373	1557.775390625	661.8514404296875	-201.1557617187499	1608.084228515625	692.4666748046875	-198.120635986328	1639.319946289062	594.1900634765625	-229.9237518310545	1575.677368164062	583.47607421875	-220.9096527099608	1571.062744140625	367.7187194824219	-211.6389770507812	1626.612182617188	346.3011474609376	-223.1571807861327	1622.534057617188	261.4931945800782	-237.5698852539062	1559.134033203125	267.7790527343751	-229.6622619628906	1527.503662109375	51.17352676391609	-310.4328308105469	1683.040771484375	34.81592941284185	-213.8614501953125	1739.736206054688	51.39262771606452	-297.9395446777344	1427.892211914062	964.2983398437501	-548.1849975585935	1469.11279296875	669.5671997070314	-523.1396484374999	1419.72705078125	696.9509887695314	-539.0930786132811	1389.238037109375	599.9360351562501	-503.9639587402343	1452.685913085938	592.9182739257814	-497.3204345703124	1365.445190429688	332.9465942382814	-480.9022827148437	1305.6103515625	320.3763732910157	-482.7630004882812	1289.1650390625	236.7801513671876	-462.3906555175781	1352.714233398438	233.4810028076173	-453.5428466796874	1221.03564453125	60.07846069335946	-383.5829467773438	1395.132934570312	19.73923683166514	-450.1038818359375	1429.318481445312	28.67747879028328	-343.2572631835938	
258	1.028	1603.443359375	1749.102783203125	-374.4920654296871	1541.554565429688	1698.215942382812	-299.9530334472652	1547.567260742188	1699.814086914062	-446.9915161132809	1408.852905273438	1528.404174804688	-377.3231201171872	1332.5537109375	1332.273681640625	-312.5985412597653	1339.053344726562	1335.454711914062	-454.3365173339841	1588.388916015625	1367.445922851562	-369.8921813964841	1480.12109375	1481.580078125	-201.1620635986325	1426.227294921875	1323.652221679688	-111.2206192016599	1481.786376953125	1234.763916015625	-101.0338745117185	1360.5966796875	1244.475952148438	-105.1729202270505	1400.890991210938	1135.404052734375	-91.47792816162084	1385.32373046875	1131.628051757812	-173.1325378417966	1493.463500976562	948.0997314453125	-81.38715362548807	1532.81591796875	881.214599609375	-116.7529525756834	1461.564086914062	859.5712280273438	-85.76509857177716	1527.848754882812	793.3433837890625	-60.66796493530256	1494.802978515625	1483.5576171875	-540.4998168945309	1486.789916992188	1317.62939453125	-638.6025390624997	1553.136596679688	1241.126586914063	-632.1286621093748	1435.563842773438	1236.64501953125	-669.0827636718748	1501.102416992188	1136.29736328125	-671.9749755859373	1445.86572265625	1125.154541015625	-617.781311035156	1633.53125	983.3591308593751	-634.2899169921873	1671.381225585938	933.7780761718751	-576.9843749999998	1635.700561523438	897.8233642578126	-636.3457031249998	1722.123901367188	860.7891235351564	-616.5106811523435	1481.103393554688	1081.915893554688	-203.1763763427732	1351.55517578125	1053.001831054688	-369.9486694335935	1476.860107421875	1075.6962890625	-545.4813842773435	1446.125	930.2240600585938	-183.4137115478514	1563.292114257812	660.908203125	-201.8194427490233	1613.43359375	691.8675537109375	-198.3791351318358	1644.941772460938	593.4945678710938	-230.2938690185545	1581.224487304688	582.637451171875	-221.2533569335936	1580.6171875	366.2117614746094	-211.911880493164	1636.5869140625	346.1211242675782	-223.6296997070312	1634.571655273438	261.1221618652344	-237.8462829589843	1570.935791015625	266.2477416992188	-230.0150756835937	1544.154663085938	49.01574325561531	-310.793701171875	1699.609375	34.85006713867192	-214.8186950683594	1756.153198242188	53.11506652832038	-298.5328674316406	1432.687133789062	963.6750488281251	-548.1632690429685	1471.954467773438	669.2118530273439	-523.2390136718749	1422.532592773438	696.8287353515626	-539.2158813476561	1391.361572265625	599.9316406250001	-503.988800048828	1454.744262695312	592.5484619140626	-497.3336486816405	1366.474975585938	333.1585388183595	-481.1452941894531	1306.556518554688	320.7336730957032	-482.6280822753906	1289.7724609375	237.2000274658204	-462.1505432128906	1353.361694335938	233.6142730712892	-453.4992065429687	1220.710571289062	60.83201599121102	-383.993896484375	1395.040649414062	19.76833152771006	-449.9312133789062	1429.4677734375	28.63004302978523	-343.2480773925781	
259	1.032	1608.938110351562	1748.2626953125	-374.2653198242184	1547.021362304688	1697.302001953125	-299.7279663085934	1553.062377929688	1698.931030273438	-446.6728820800777	1414.254638671875	1527.623779296875	-376.948089599609	1338.002075195312	1331.461303710938	-312.6381835937497	1344.36865234375	1334.68017578125	-454.2699279785153	1593.785522460938	1366.343505859375	-369.712707519531	1485.471923828125	1480.665161132812	-200.9776763916012	1431.138549804688	1322.7158203125	-111.2276382446286	1486.515014648438	1233.840087890625	-100.85432434082	1365.308471679688	1243.570922851562	-105.2659988403318	1405.807373046875	1134.618774414062	-91.56111145019506	1390.023315429688	1130.812133789062	-173.1580657958982	1498.078979492188	947.1090698242188	-81.23352813720682	1537.587524414062	880.33447265625	-116.4048614501951	1466.154907226562	858.6224365234375	-85.75438690185528	1532.28515625	792.5020751953125	-60.48522567749006	1500.239990234375	1482.608520507813	-540.3272705078122	1492.422973632812	1316.900268554688	-638.4316406249997	1559.125610351562	1240.508422851563	-631.9884033203123	1441.614379882812	1235.851196289063	-669.2457885742185	1507.244750976562	1135.651489257813	-672.226623535156	1452.02587890625	1124.331298828125	-618.0465698242185	1640.340576171875	983.2181396484376	-633.8513183593748	1678.035400390625	933.7845458984376	-576.4998779296873	1642.769287109375	897.7390136718751	-636.055725097656	1729.403198242188	861.1229248046876	-615.6910400390623	1486.620361328125	1080.929809570312	-203.1474609374998	1356.95751953125	1052.164916992188	-369.8634338378904	1482.011596679688	1074.886596679688	-545.4147949218748	1451.584228515625	929.238037109375	-183.5175933837889	1568.664794921875	660.2025146484375	-202.1325378417967	1618.771606445312	690.9498901367188	-198.2709197998045	1650.368774414062	592.9027099609375	-230.6242370605467	1586.902954101562	581.9939575195312	-221.2791900634764	1590.182495117188	364.7583007812501	-212.473907470703	1646.683959960938	346.0424194335938	-223.9926605224609	1646.555786132812	261.0591125488282	-238.2518463134765	1582.676879882812	264.4159851074219	-230.3945159912109	1560.783325195312	47.01366806030281	-311.4652709960938	1716.4921875	35.88187789916997	-215.3123016357422	1772.685546875	55.05274581909186	-298.9488525390625	1437.333740234375	963.2296752929689	-548.0256347656248	1474.521728515625	668.6939697265626	-523.5019531249999	1425.371704101562	696.5250244140626	-538.8848876953124	1394.062377929688	600.6668090820314	-504.6365356445311	1457.069091796875	592.0737304687501	-497.6371459960936	1367.425903320312	333.1305541992189	-480.8623352050781	1307.550170898438	321.424530029297	-482.2977294921874	1290.412719726562	237.6562500000001	-461.7726745605468	1353.990600585938	233.8246459960939	-453.3684997558593	1220.86474609375	61.47312545776376	-383.6819152832031	1394.877197265625	19.80008125305186	-449.81103515625	1429.604125976562	28.70061302185066	-343.3915405273438	
